<svg xmlns="http://www.w3.org/2000/svg" width="1200" height="630" viewBox="0 0 1200 630"><rect width="1200" height="630" fill="#fff6ea"/><rect x="110" y="95" width="980" height="440" rx="18" fill="#fff" stroke="#ead1aa"/><path d="M190 170h360c42 0 70 28 70 70v230H260c-42 0-70-28-70-70z" fill="#fff6ea" stroke="#8b5a2b" stroke-width="8"/><path d="M620 240c0-42 28-70 70-70h320v300H620z" fill="#fff" stroke="#8b5a2b" stroke-width="8"/><rect x="270" y="235" width="240" height="18" rx="9" fill="#8b5a2b" opacity=".75"/><rect x="270" y="290" width="290" height="14" rx="7" fill="#9aa6c7"/><rect x="270" y="335" width="230" height="14" rx="7" fill="#9aa6c7"/><rect x="700" y="245" width="230" height="16" rx="8" fill="#9aa6c7"/><rect x="700" y="300" width="180" height="16" rx="8" fill="#9aa6c7"/><text x="130" y="565" font-family="Arial" font-size="42" font-weight="700" fill="#172033">Take notes from a textbook</text></svg>