<?xml version="1.0" encoding="UTF-8"?>
<svg xmlns="http://www.w3.org/2000/svg" viewBox="0 0 1200 675" role="img" aria-label="Calm study corner">
  <defs>
    <linearGradient id="bg" x1="0" y1="0" x2="1" y2="1"><stop stop-color="#101827"/><stop offset="1" stop-color="#172b35"/></linearGradient>
    <radialGradient id="glow" cx="42%" cy="18%" r="70%"><stop stop-color="#4fd1c5" stop-opacity=".24"/><stop offset="1" stop-color="#4fd1c5" stop-opacity="0"/></radialGradient>
    <filter id="shadow" x="-20%" y="-20%" width="140%" height="140%"><feDropShadow dx="0" dy="18" stdDeviation="24" flood-color="#000" flood-opacity=".35"/></filter>
  </defs>
  <rect width="1200" height="675" fill="url(#bg)"/><rect width="1200" height="675" fill="url(#glow)"/>
  <g opacity=".22"><rect x="78" y="82" width="92" height="330" rx="10" fill="#fff" opacity=".08"/><rect x="190" y="58" width="78" height="360" rx="10" fill="#fff" opacity=".06"/><rect x="292" y="96" width="112" height="316" rx="10" fill="#fff" opacity=".07"/><rect x="830" y="70" width="92" height="340" rx="10" fill="#fff" opacity=".07"/><rect x="950" y="92" width="130" height="316" rx="10" fill="#fff" opacity=".05"/></g>
  <g filter="url(#shadow)"><rect x="158" y="424" width="884" height="72" rx="22" fill="#4a2f25"/><rect x="232" y="392" width="256" height="76" rx="12" fill="#202231" stroke="#ffffff" stroke-opacity=".08"/><rect x="254" y="408" width="212" height="42" rx="8" fill="#0d111b"/><rect x="548" y="318" width="220" height="148" rx="18" fill="#111827" stroke="#4fd1c5" stroke-opacity=".32"/><rect x="572" y="342" width="172" height="88" rx="10" fill="#19233a"/><circle cx="658" cy="386" r="26" fill="#4fd1c5" opacity=".9"/><path d="M646 386h34M663 369v34" stroke="#fff" stroke-width="8" stroke-linecap="round" opacity=".85"/><rect x="772" y="370" width="146" height="28" rx="8" fill="#7c6af5" opacity=".9"/><rect x="790" y="406" width="130" height="28" rx="8" fill="#ffffff" opacity=".16"/><rect x="195" y="370" width="86" height="28" rx="6" fill="#4fd1c5"/><rect x="195" y="334" width="120" height="28" rx="6" fill="#ffffff" opacity=".17"/><rect x="195" y="298" width="96" height="28" rx="6" fill="#7c6af5" opacity=".85"/><circle cx="970" cy="380" r="42" fill="#f3d6a4" opacity=".95"/><path d="M922 468c10-60 34-86 72-86s64 27 74 86" fill="#233148"/></g>
  <g><rect x="86" y="82" width="440" height="132" rx="26" fill="#07070f" opacity=".52"/><text x="116" y="132" fill="#fff" font-family="Arial, sans-serif" font-size="34" font-weight="800">StudyTools</text><text x="116" y="176" fill="#cfd4e8" font-family="Arial, sans-serif" font-size="24">Calm study corner</text></g>
</svg>