<svg xmlns="http://www.w3.org/2000/svg" viewBox="0 0 1200 630" role="img" aria-labelledby="title desc"><title id="title">Pass a hard exam</title><desc id="desc">Exam preparation desk with practice papers, progress chart and study checklist.</desc><defs><linearGradient id="bg" x1="0" y1="0" x2="1" y2="1"><stop offset="0" stop-color="#fff7ed"/><stop offset="1" stop-color="#eef2ff"/></linearGradient></defs><rect width="1200" height="630" fill="url(#bg)"/><rect x="100" y="82" width="1000" height="466" rx="28" fill="#fff" stroke="#e2e8f0" stroke-width="4"/><text x="150" y="148" font-family="Arial" font-size="40" font-weight="900" fill="#172033">Hard exam study plan</text><rect x="150" y="205" width="330" height="260" rx="18" fill="#172033"/><rect x="190" y="248" width="250" height="22" rx="11" fill="#fff" opacity=".9"/><rect x="190" y="300" width="210" height="22" rx="11" fill="#c7d2fe"/><rect x="190" y="352" width="230" height="22" rx="11" fill="#99f6e4"/><rect x="560" y="215" width="80" height="220" rx="14" fill="#4fd1c5"/><rect x="672" y="270" width="80" height="165" rx="14" fill="#6f7cff"/><rect x="784" y="180" width="80" height="255" rx="14" fill="#f0a35b"/><path d="M540 455h360" stroke="#94a3b8" stroke-width="8" stroke-linecap="round"/><circle cx="965" cy="255" r="55" fill="#eef2ff" stroke="#6f7cff" stroke-width="7"/><path d="M942 255l18 18 34-42" fill="none" stroke="#2f8f83" stroke-width="12" stroke-linecap="round" stroke-linejoin="round"/></svg>