<svg xmlns="http://www.w3.org/2000/svg" viewBox="0 0 1200 630" role="img" aria-labelledby="title desc"><title id="title">Night before exam plan</title><desc id="desc">A calm night study setup with light review, checklist and sleep reminder.</desc><defs><linearGradient id="bg" x1="0" y1="0" x2="1" y2="1"><stop offset="0" stop-color="#eef2ff"/><stop offset="1" stop-color="#0f172a"/></linearGradient></defs><rect width="1200" height="630" fill="url(#bg)"/><circle cx="960" cy="115" r="48" fill="#fff7cc"/><rect x="96" y="92" width="1008" height="445" rx="28" fill="#fff" opacity=".96" stroke="#dbe4f0" stroke-width="4"/><text x="150" y="155" font-family="Arial" font-size="40" font-weight="900" fill="#172033">Night before exam</text><rect x="155" y="220" width="330" height="210" rx="18" fill="#172033"/><rect x="195" y="260" width="235" height="22" rx="11" fill="#c7d2fe"/><rect x="195" y="312" width="190" height="22" rx="11" fill="#99f6e4"/><rect x="195" y="364" width="220" height="22" rx="11" fill="#fde68a"/><rect x="570" y="220" width="390" height="58" rx="16" fill="#eef2ff"/><rect x="570" y="310" width="330" height="58" rx="16" fill="#e8fff9"/><rect x="570" y="400" width="250" height="58" rx="16" fill="#fff7ed"/><path d="M535 500h450" stroke="#94a3b8" stroke-width="9" stroke-linecap="round"/><text x="600" y="258" font-family="Arial" font-size="23" font-weight="800" fill="#4d5bd1">review priorities</text><text x="600" y="348" font-family="Arial" font-size="23" font-weight="800" fill="#15746c">prepare materials</text><text x="600" y="438" font-family="Arial" font-size="23" font-weight="800" fill="#9a5d10">sleep</text></svg>