<svg xmlns="http://www.w3.org/2000/svg" viewBox="0 0 1200 630" role="img" aria-labelledby="title desc">
  <title id="title">Remember what you study</title>
  <desc id="desc">Flashcards, memory pathways and a spaced repetition calendar for students.</desc>
  <defs>
    <linearGradient id="bg" x1="0" y1="0" x2="1" y2="1"><stop offset="0" stop-color="#f0fff8"/><stop offset="1" stop-color="#eef2ff"/></linearGradient>
    <linearGradient id="card" x1="0" y1="0" x2="1" y2="1"><stop offset="0" stop-color="#4fd1c5"/><stop offset="1" stop-color="#6f7cff"/></linearGradient>
  </defs>
  <rect width="1200" height="630" fill="url(#bg)"/>
  <rect x="92" y="82" width="1016" height="466" rx="26" fill="#ffffff" stroke="#d9e2f1" stroke-width="4"/>
  <text x="145" y="150" font-family="Arial, sans-serif" font-size="38" font-weight="800" fill="#172033">Remember what you study</text>
  <rect x="150" y="205" width="260" height="170" rx="18" fill="url(#card)"/>
  <rect x="188" y="248" width="184" height="18" rx="9" fill="#ffffff" opacity=".92"/>
  <rect x="188" y="286" width="145" height="18" rx="9" fill="#ffffff" opacity=".78"/>
  <rect x="188" y="324" width="170" height="18" rx="9" fill="#ffffff" opacity=".66"/>
  <rect x="470" y="205" width="260" height="170" rx="18" fill="#fff7e8" stroke="#f0a35b" stroke-width="4"/>
  <text x="515" y="280" font-family="Arial, sans-serif" font-size="64" font-weight="900" fill="#f0a35b">?</text>
  <text x="585" y="282" font-family="Arial, sans-serif" font-size="26" font-weight="800" fill="#172033">Recall</text>
  <rect x="790" y="205" width="260" height="170" rx="18" fill="#f4f6fb" stroke="#cbd5e1" stroke-width="4"/>
  <circle cx="848" cy="258" r="16" fill="#4fd1c5"/><circle cx="920" cy="290" r="16" fill="#6f7cff"/><circle cx="990" cy="330" r="16" fill="#ff6b7a"/>
  <path d="M865 264c25 10 37 17 39 20M936 300c18 11 30 18 39 24" fill="none" stroke="#94a3b8" stroke-width="7" stroke-linecap="round"/>
  <rect x="170" y="430" width="190" height="34" rx="17" fill="#e8fff9"/><rect x="390" y="430" width="190" height="34" rx="17" fill="#eef2ff"/><rect x="610" y="430" width="190" height="34" rx="17" fill="#fff4dc"/><rect x="830" y="430" width="190" height="34" rx="17" fill="#ffeef2"/>
  <text x="196" y="453" font-family="Arial, sans-serif" font-size="20" font-weight="700" fill="#15746c">Day 1</text><text x="416" y="453" font-family="Arial, sans-serif" font-size="20" font-weight="700" fill="#4d5bd1">Day 3</text><text x="636" y="453" font-family="Arial, sans-serif" font-size="20" font-weight="700" fill="#9a5d10">Day 7</text><text x="856" y="453" font-family="Arial, sans-serif" font-size="20" font-weight="700" fill="#b9364b">Exam</text>
</svg>
