<svg xmlns="http://www.w3.org/2000/svg" viewBox="0 0 1200 630" role="img" aria-labelledby="title desc"><title id="title">Study faster without rushing</title><desc id="desc">A student desk with timer, notebook, checklist and focused study blocks.</desc><defs><linearGradient id="bg" x1="0" y1="0" x2="1" y2="1"><stop offset="0" stop-color="#eef2ff"/><stop offset="1" stop-color="#e8fff9"/></linearGradient><linearGradient id="a" x1="0" y1="0" x2="1" y2="1"><stop offset="0" stop-color="#6f7cff"/><stop offset="1" stop-color="#4fd1c5"/></linearGradient></defs><rect width="1200" height="630" fill="url(#bg)"/><rect x="92" y="78" width="1016" height="474" rx="28" fill="#fff" stroke="#dbe4f0" stroke-width="4"/><text x="145" y="150" font-family="Arial" font-size="40" font-weight="900" fill="#172033">Study faster, learn better</text><rect x="150" y="205" width="320" height="230" rx="18" fill="url(#a)"/><path d="M225 312h170M225 360h120" stroke="#fff" stroke-width="20" stroke-linecap="round" opacity=".9"/><circle cx="398" cy="250" r="34" fill="#fff" opacity=".9"/><path d="M398 230v24l18 14" stroke="#172033" stroke-width="8" fill="none" stroke-linecap="round"/><rect x="535" y="205" width="235" height="64" rx="16" fill="#f1f5f9"/><rect x="535" y="296" width="235" height="64" rx="16" fill="#f1f5f9"/><rect x="535" y="387" width="235" height="64" rx="16" fill="#f1f5f9"/><circle cx="570" cy="237" r="13" fill="#4fd1c5"/><circle cx="570" cy="328" r="13" fill="#6f7cff"/><circle cx="570" cy="419" r="13" fill="#f0a35b"/><rect x="815" y="205" width="220" height="246" rx="22" fill="#172033"/><rect x="845" y="245" width="160" height="22" rx="11" fill="#eef2ff"/><rect x="845" y="296" width="120" height="22" rx="11" fill="#c7d2fe"/><rect x="845" y="347" width="145" height="22" rx="11" fill="#99f6e4"/></svg>